<?xml version="1.0" standalone="no"?>
<!DOCTYPE svg PUBLIC "-//W3C//DTD SVG 20010904//EN"
 "http://www.w3.org/TR/2001/REC-SVG-20010904/DTD/svg10.dtd">
<svg version="1.0" xmlns="http://www.w3.org/2000/svg"
 width="512.000000pt" height="512.000000pt" viewBox="0 0 512.000000 512.000000"
 preserveAspectRatio="xMidYMid meet">
<metadata>
Created by potrace 1.14, written by Peter Selinger 2001-2017
</metadata>
<g transform="translate(0.000000,512.000000) scale(0.100000,-0.100000)"
fill="#000000" stroke="none">
<path d="M535 5110 c-203 -41 -361 -184 -431 -390 -18 -53 -19 -109 -19 -1320
0 -1210 1 -1267 19 -1320 10 -30 22 -59 27 -64 5 -6 9 -16 9 -23 0 -15 28 -57
77 -117 70 -84 207 -165 314 -184 30 -6 146 -11 259 -12 112 0 205 -2 207 -4
2 -2 -23 -79 -56 -172 -221 -633 -346 -990 -371 -1059 -67 -188 -90 -261 -90
-287 0 -74 60 -142 134 -153 83 -13 151 30 179 110 l14 40 1193 0 1193 0 14
-42 c46 -138 243 -149 299 -16 25 59 24 63 -106 433 -34 96 -84 240 -111 320
-28 80 -61 174 -74 210 -42 114 -215 611 -215 616 0 3 30 4 67 2 l66 -3 21
-80 c69 -261 254 -487 497 -611 66 -33 116 -52 199 -73 l65 -17 5 -395 c5
-427 4 -418 63 -463 71 -54 176 -37 229 36 l23 33 3 396 3 397 41 6 c200 32
442 189 573 372 128 179 186 366 181 588 -3 129 -4 135 -43 265 -73 248 -278
480 -517 586 -211 93 -464 108 -693 39 -23 -6 -23 -6 -23 99 l0 105 35 6 c54
11 112 71 120 126 3 25 5 392 3 815 -3 769 -3 770 -26 829 -48 128 -114 214
-219 287 -40 27 -74 49 -75 48 -2 -1 -20 6 -41 14 -21 9 -61 21 -90 26 -63 12
-2872 13 -2932 1z m2125 -3433 c0 -1 18 -54 41 -117 23 -63 45 -126 49 -140 4
-14 11 -33 15 -42 7 -17 -34 -18 -764 -18 l-770 0 45 133 c25 72 50 144 56
160 l10 27 659 0 c363 0 659 -1 659 -3z m225 -647 c3 -5 26 -67 50 -137 24
-71 66 -192 94 -270 l50 -143 -1079 0 -1078 0 50 143 c27 78 69 199 93 269 24
70 46 131 50 137 8 15 1761 15 1770 1z"/>
</g>
</svg>
